<?xml version="1.0" standalone="no"?>
<!DOCTYPE svg PUBLIC "-//W3C//DTD SVG 20010904//EN"
 "http://www.w3.org/TR/2001/REC-SVG-20010904/DTD/svg10.dtd">
<svg version="1.0" xmlns="http://www.w3.org/2000/svg"
 width="512.000000pt" height="512.000000pt" viewBox="0 0 512.000000 512.000000"
 preserveAspectRatio="xMidYMid meet">
<metadata>
Created by potrace 1.11, written by Peter Selinger 2001-2013
</metadata>
<g transform="translate(0.000000,512.000000) scale(0.100000,-0.100000)"
fill="#000000" stroke="none">
<path d="M386 5104 c-176 -43 -329 -196 -371 -375 -13 -56 -15 -327 -15 -2169
0 -2316 -4 -2169 61 -2291 40 -74 134 -168 208 -208 122 -65 -25 -61 2291 -61
2316 0 2169 -4 2291 61 74 40 168 134 208 208 65 122 61 -25 61 2291 0 1842
-2 2113 -15 2169 -43 181 -195 333 -376 376 -94 22 -4251 21 -4343 -1z m2978
-885 c46 -36 88 -134 94 -216 7 -106 -7 -182 -149 -828 -155 -702 -187 -857
-239 -1160 -30 -178 -80 -549 -80 -597 0 -4 136 -8 303 -10 268 -3 306 -5 335
-21 56 -31 58 -53 11 -191 -50 -145 -59 -163 -96 -198 -54 -51 -48 -51 -607
-32 -599 20 -694 16 -1031 -41 -116 -20 -237 -41 -271 -46 -34 -6 -88 -9 -120
-7 l-59 3 -3 41 c-13 174 304 403 646 468 43 8 112 18 153 22 l76 6 6 132 c19
408 192 1168 433 1895 40 124 72 226 70 229 -8 7 -203 -50 -297 -87 -53 -22
-172 -81 -265 -133 -296 -165 -314 -166 -314 -15 0 172 84 322 266 471 72 59
184 106 454 189 416 130 476 144 596 146 48 1 67 -4 88 -20z"/>
</g>
</svg>
